<mxfile host="Electron" agent="Mozilla/5.0 (X11; Linux x86_64) AppleWebKit/537.36 (KHTML, like Gecko) draw.io/24.7.5 Chrome/126.0.6478.183 Electron/31.3.0 Safari/537.36" version="24.7.5">
  <diagram name="第 1 页" id="M-4Aq_xlIT1MwI5X12KT">
    <mxGraphModel dx="2180" dy="725" grid="1" gridSize="10" guides="1" tooltips="1" connect="1" arrows="1" fold="1" page="1" pageScale="1" pageWidth="1169" pageHeight="827" math="0" shadow="0">
      <root>
        <mxCell id="0" />
        <mxCell id="1" parent="0" />
        <mxCell id="-0PU7LFNe-G_EccvMKZa-72" value="用户程序" style="rounded=1;whiteSpace=wrap;html=1;fillColor=#b0e3e6;strokeColor=#0e8088;fontFamily=Noto Sans CJK SC;fontSize=12;" vertex="1" parent="1">
          <mxGeometry x="-400" y="270" width="440" height="35" as="geometry" />
        </mxCell>
        <mxCell id="-0PU7LFNe-G_EccvMKZa-73" value="" style="group;movable=1;resizable=1;rotatable=1;deletable=1;editable=1;locked=0;connectable=1;fontFamily=Noto Sans CJK SC;fontStyle=1;fontSize=12;" vertex="1" connectable="0" parent="1">
          <mxGeometry x="-400" y="360" width="440" height="350" as="geometry" />
        </mxCell>
        <mxCell id="-0PU7LFNe-G_EccvMKZa-25" value="" style="rounded=1;whiteSpace=wrap;html=1;movable=1;resizable=1;rotatable=1;deletable=1;editable=1;locked=0;connectable=1;fillColor=#f9f7ed;strokeColor=#36393d;fontFamily=Noto Sans CJK SC;fontSize=12;" vertex="1" parent="-0PU7LFNe-G_EccvMKZa-73">
          <mxGeometry width="440" height="350" as="geometry" />
        </mxCell>
        <mxCell id="-0PU7LFNe-G_EccvMKZa-27" value="网络模块" style="rounded=1;whiteSpace=wrap;html=1;movable=1;resizable=1;rotatable=1;deletable=1;editable=1;locked=0;connectable=1;fillColor=#ffe6cc;strokeColor=#d79b00;fontFamily=Noto Sans CJK SC;fontStyle=1;fontSize=12;" vertex="1" parent="-0PU7LFNe-G_EccvMKZa-73">
          <mxGeometry x="230" y="109.5" width="80" height="41" as="geometry" />
        </mxCell>
        <mxCell id="-0PU7LFNe-G_EccvMKZa-36" value="" style="rounded=1;whiteSpace=wrap;html=1;movable=1;resizable=1;rotatable=1;deletable=1;editable=1;locked=0;connectable=1;fillColor=#d5e8d4;strokeColor=#82b366;fontFamily=Noto Sans CJK SC;fontSize=12;" vertex="1" parent="-0PU7LFNe-G_EccvMKZa-73">
          <mxGeometry x="20" y="50" width="190" height="140" as="geometry" />
        </mxCell>
        <mxCell id="-0PU7LFNe-G_EccvMKZa-37" value="&lt;b style=&quot;font-size: 12px;&quot;&gt;内存管理&lt;/b&gt;" style="text;html=1;align=center;verticalAlign=middle;whiteSpace=wrap;rounded=0;movable=1;resizable=1;rotatable=1;deletable=1;editable=1;locked=0;connectable=1;fontFamily=Noto Sans CJK SC;fontSize=12;" vertex="1" parent="-0PU7LFNe-G_EccvMKZa-73">
          <mxGeometry x="21.25" y="55" width="190" height="30" as="geometry" />
        </mxCell>
        <mxCell id="-0PU7LFNe-G_EccvMKZa-24" value="page" style="rounded=0;whiteSpace=wrap;html=1;movable=1;resizable=1;rotatable=1;deletable=1;editable=1;locked=0;connectable=1;fillColor=#fff2cc;strokeColor=#d6b656;fontFamily=Noto Sans CJK SC;fontSize=12;" vertex="1" parent="-0PU7LFNe-G_EccvMKZa-73">
          <mxGeometry x="140" y="86.5" width="50" height="30" as="geometry" />
        </mxCell>
        <mxCell id="-0PU7LFNe-G_EccvMKZa-59" value="写时复制" style="rounded=0;whiteSpace=wrap;html=1;movable=1;resizable=1;rotatable=1;deletable=1;editable=1;locked=0;connectable=1;fillColor=#fff2cc;strokeColor=#d6b656;fontFamily=Noto Sans CJK SC;fontSize=12;" vertex="1" parent="-0PU7LFNe-G_EccvMKZa-73">
          <mxGeometry x="40" y="116" width="80" height="27" as="geometry" />
        </mxCell>
        <mxCell id="-0PU7LFNe-G_EccvMKZa-60" value="懒加载" style="rounded=0;whiteSpace=wrap;html=1;movable=1;resizable=1;rotatable=1;deletable=1;editable=1;locked=0;connectable=1;fillColor=#fff2cc;strokeColor=#d6b656;fontFamily=Noto Sans CJK SC;fontSize=12;" vertex="1" parent="-0PU7LFNe-G_EccvMKZa-73">
          <mxGeometry x="40" y="143" width="80" height="30" as="geometry" />
        </mxCell>
        <mxCell id="-0PU7LFNe-G_EccvMKZa-63" value="地址空间管理" style="rounded=0;whiteSpace=wrap;html=1;movable=1;resizable=1;rotatable=1;deletable=1;editable=1;locked=0;connectable=1;fillColor=#fff2cc;strokeColor=#d6b656;fontFamily=Noto Sans CJK SC;fontSize=12;" vertex="1" parent="-0PU7LFNe-G_EccvMKZa-73">
          <mxGeometry x="40" y="87" width="80" height="29" as="geometry" />
        </mxCell>
        <mxCell id="-0PU7LFNe-G_EccvMKZa-22" value="" style="rounded=1;whiteSpace=wrap;html=1;movable=1;resizable=1;rotatable=1;deletable=1;editable=1;locked=0;connectable=1;fillColor=#f8cecc;strokeColor=#b85450;fontFamily=Noto Sans CJK SC;fontSize=12;" vertex="1" parent="-0PU7LFNe-G_EccvMKZa-73">
          <mxGeometry x="230" y="168" width="180" height="160" as="geometry" />
        </mxCell>
        <mxCell id="-0PU7LFNe-G_EccvMKZa-28" value="&lt;b style=&quot;font-size: 12px;&quot;&gt;文件系统&lt;/b&gt;" style="text;html=1;align=center;verticalAlign=middle;whiteSpace=wrap;rounded=0;movable=1;resizable=1;rotatable=1;deletable=1;editable=1;locked=0;connectable=1;fontFamily=Noto Sans CJK SC;fontSize=12;" vertex="1" parent="-0PU7LFNe-G_EccvMKZa-73">
          <mxGeometry x="230" y="168" width="180" height="40" as="geometry" />
        </mxCell>
        <mxCell id="-0PU7LFNe-G_EccvMKZa-17" value="ext4" style="rounded=0;whiteSpace=wrap;html=1;movable=1;resizable=1;rotatable=1;deletable=1;editable=1;locked=0;connectable=1;fillColor=#fff2cc;strokeColor=#d6b656;fontFamily=Noto Sans CJK SC;fontSize=12;" vertex="1" parent="-0PU7LFNe-G_EccvMKZa-73">
          <mxGeometry x="250" y="247" width="40" height="30" as="geometry" />
        </mxCell>
        <mxCell id="-0PU7LFNe-G_EccvMKZa-23" value="vfs" style="rounded=0;whiteSpace=wrap;html=1;movable=1;resizable=1;rotatable=1;deletable=1;editable=1;locked=0;connectable=1;fillColor=#fff2cc;strokeColor=#d6b656;fontFamily=Noto Sans CJK SC;fontSize=12;" vertex="1" parent="-0PU7LFNe-G_EccvMKZa-73">
          <mxGeometry x="250" y="206" width="140" height="30" as="geometry" />
        </mxCell>
        <mxCell id="-0PU7LFNe-G_EccvMKZa-21" value="fat32" style="rounded=0;whiteSpace=wrap;html=1;movable=1;resizable=1;rotatable=1;deletable=1;editable=1;locked=0;connectable=1;fillColor=#fff2cc;strokeColor=#d6b656;fontFamily=Noto Sans CJK SC;fontSize=12;" vertex="1" parent="-0PU7LFNe-G_EccvMKZa-73">
          <mxGeometry x="300" y="247" width="40" height="30" as="geometry" />
        </mxCell>
        <mxCell id="-0PU7LFNe-G_EccvMKZa-39" value="tmpfs" style="rounded=0;whiteSpace=wrap;html=1;movable=1;resizable=1;rotatable=1;deletable=1;editable=1;locked=0;connectable=1;fillColor=#fff2cc;strokeColor=#d6b656;fontFamily=Noto Sans CJK SC;fontSize=12;" vertex="1" parent="-0PU7LFNe-G_EccvMKZa-73">
          <mxGeometry x="250" y="286" width="40" height="30" as="geometry" />
        </mxCell>
        <mxCell id="-0PU7LFNe-G_EccvMKZa-47" value="devfs" style="rounded=0;whiteSpace=wrap;html=1;movable=1;resizable=1;rotatable=1;deletable=1;editable=1;locked=0;connectable=1;fillColor=#fff2cc;strokeColor=#d6b656;fontFamily=Noto Sans CJK SC;fontSize=12;" vertex="1" parent="-0PU7LFNe-G_EccvMKZa-73">
          <mxGeometry x="350" y="247" width="40" height="30" as="geometry" />
        </mxCell>
        <mxCell id="-0PU7LFNe-G_EccvMKZa-50" value="procfs" style="rounded=0;whiteSpace=wrap;html=1;movable=1;resizable=1;rotatable=1;deletable=1;editable=1;locked=0;connectable=1;fillColor=#fff2cc;strokeColor=#d6b656;fontFamily=Noto Sans CJK SC;fontSize=12;" vertex="1" parent="-0PU7LFNe-G_EccvMKZa-73">
          <mxGeometry x="300" y="286" width="40" height="30" as="geometry" />
        </mxCell>
        <mxCell id="-0PU7LFNe-G_EccvMKZa-64" value="sockfs" style="rounded=0;whiteSpace=wrap;html=1;movable=1;resizable=1;rotatable=1;deletable=1;editable=1;locked=0;connectable=1;fillColor=#fff2cc;strokeColor=#d6b656;fontFamily=Noto Sans CJK SC;fontSize=12;" vertex="1" parent="-0PU7LFNe-G_EccvMKZa-73">
          <mxGeometry x="350" y="286" width="40" height="30" as="geometry" />
        </mxCell>
        <mxCell id="-0PU7LFNe-G_EccvMKZa-65" value="memory" style="rounded=0;whiteSpace=wrap;html=1;movable=1;resizable=1;rotatable=1;deletable=1;editable=1;locked=0;connectable=1;fillColor=#fff2cc;strokeColor=#d6b656;fontFamily=Noto Sans CJK SC;fontSize=12;" vertex="1" parent="-0PU7LFNe-G_EccvMKZa-73">
          <mxGeometry x="140" y="143" width="50" height="30" as="geometry" />
        </mxCell>
        <mxCell id="-0PU7LFNe-G_EccvMKZa-68" value="信号机制" style="rounded=1;whiteSpace=wrap;html=1;movable=1;resizable=1;rotatable=1;deletable=1;editable=1;locked=0;connectable=1;fillColor=#ffe6cc;strokeColor=#d79b00;fontFamily=Noto Sans CJK SC;fontStyle=1;fontSize=12;" vertex="1" parent="-0PU7LFNe-G_EccvMKZa-73">
          <mxGeometry x="330" y="109.5" width="80" height="41" as="geometry" />
        </mxCell>
        <mxCell id="-0PU7LFNe-G_EccvMKZa-69" value="异步系统" style="rounded=1;whiteSpace=wrap;html=1;movable=1;resizable=1;rotatable=1;deletable=1;editable=1;locked=0;connectable=1;fillColor=#ffe6cc;strokeColor=#d79b00;fontFamily=Noto Sans CJK SC;fontStyle=1;fontSize=12;" vertex="1" parent="-0PU7LFNe-G_EccvMKZa-73">
          <mxGeometry x="230" y="50" width="80" height="40" as="geometry" />
        </mxCell>
        <mxCell id="-0PU7LFNe-G_EccvMKZa-70" value="进程管理" style="rounded=1;whiteSpace=wrap;html=1;movable=1;resizable=1;rotatable=1;deletable=1;editable=1;locked=0;connectable=1;fillColor=#ffe6cc;strokeColor=#d79b00;fontFamily=Noto Sans CJK SC;fontStyle=1;fontSize=12;" vertex="1" parent="-0PU7LFNe-G_EccvMKZa-73">
          <mxGeometry x="330" y="51" width="80" height="40" as="geometry" />
        </mxCell>
        <mxCell id="-0PU7LFNe-G_EccvMKZa-32" value="" style="rounded=1;whiteSpace=wrap;html=1;movable=1;resizable=1;rotatable=1;deletable=1;editable=1;locked=0;connectable=1;fillColor=#e1d5e7;strokeColor=#9673a6;fontFamily=Noto Sans CJK SC;fontSize=12;" vertex="1" parent="-0PU7LFNe-G_EccvMKZa-73">
          <mxGeometry x="20" y="210" width="190" height="120" as="geometry" />
        </mxCell>
        <mxCell id="-0PU7LFNe-G_EccvMKZa-33" value="&lt;b style=&quot;font-size: 12px;&quot;&gt;设备驱动&lt;/b&gt;" style="text;html=1;align=center;verticalAlign=middle;whiteSpace=wrap;rounded=0;movable=1;resizable=1;rotatable=1;deletable=1;editable=1;locked=0;connectable=1;fontFamily=Noto Sans CJK SC;fontSize=12;" vertex="1" parent="-0PU7LFNe-G_EccvMKZa-73">
          <mxGeometry x="20" y="210" width="190" height="40" as="geometry" />
        </mxCell>
        <mxCell id="-0PU7LFNe-G_EccvMKZa-38" value="Virt IO" style="rounded=0;whiteSpace=wrap;html=1;movable=1;resizable=1;rotatable=1;deletable=1;editable=1;locked=0;connectable=1;fillColor=#fff2cc;strokeColor=#d6b656;fontFamily=Noto Sans CJK SC;fontSize=12;" vertex="1" parent="-0PU7LFNe-G_EccvMKZa-73">
          <mxGeometry x="32.5" y="250" width="55" height="30" as="geometry" />
        </mxCell>
        <mxCell id="-0PU7LFNe-G_EccvMKZa-51" value="PLIC" style="rounded=0;whiteSpace=wrap;html=1;movable=1;resizable=1;rotatable=1;deletable=1;editable=1;locked=0;connectable=1;fillColor=#fff2cc;strokeColor=#d6b656;fontFamily=Noto Sans CJK SC;fontSize=12;" vertex="1" parent="-0PU7LFNe-G_EccvMKZa-73">
          <mxGeometry x="32.5" y="290" width="167.5" height="20" as="geometry" />
        </mxCell>
        <mxCell id="-0PU7LFNe-G_EccvMKZa-57" value="device manager" style="rounded=0;whiteSpace=wrap;html=1;movable=1;resizable=1;rotatable=1;deletable=1;editable=1;locked=0;connectable=1;fillColor=#fff2cc;strokeColor=#d6b656;fontFamily=Noto Sans CJK SC;fontSize=12;" vertex="1" parent="-0PU7LFNe-G_EccvMKZa-73">
          <mxGeometry x="95" y="250" width="105" height="30" as="geometry" />
        </mxCell>
        <mxCell id="-0PU7LFNe-G_EccvMKZa-71" value="&lt;b style=&quot;font-size: 16px;&quot;&gt;&lt;font style=&quot;font-size: 16px;&quot;&gt;Phoenix 内核&lt;/font&gt;&lt;/b&gt;" style="text;html=1;align=center;verticalAlign=middle;whiteSpace=wrap;rounded=0;movable=1;resizable=1;rotatable=1;deletable=1;editable=1;locked=0;connectable=1;fontFamily=Noto Sans CJK SC;fontSize=16;" vertex="1" parent="-0PU7LFNe-G_EccvMKZa-73">
          <mxGeometry width="440" height="50" as="geometry" />
        </mxCell>
        <mxCell id="-0PU7LFNe-G_EccvMKZa-74" value="POSIX" style="rounded=1;whiteSpace=wrap;html=1;fillColor=#b1ddf0;strokeColor=#10739e;fontFamily=Noto Sans CJK SC;fontSize=12;" vertex="1" parent="1">
          <mxGeometry x="-350" y="318" width="340" height="30" as="geometry" />
        </mxCell>
        <mxCell id="-0PU7LFNe-G_EccvMKZa-75" value="HardWare" style="rounded=1;whiteSpace=wrap;html=1;fillColor=#bac8d3;strokeColor=#23445d;fontFamily=Noto Sans CJK SC;fontSize=12;" vertex="1" parent="1">
          <mxGeometry x="-400" y="760" width="440" height="30" as="geometry" />
        </mxCell>
        <mxCell id="-0PU7LFNe-G_EccvMKZa-76" value="OpenSBI" style="rounded=1;whiteSpace=wrap;html=1;fillColor=#d0cee2;strokeColor=#56517e;fontFamily=Noto Sans CJK SC;fontSize=12;" vertex="1" parent="1">
          <mxGeometry x="-160" y="720" width="150" height="30" as="geometry" />
        </mxCell>
        <mxCell id="-0PU7LFNe-G_EccvMKZa-77" value="virtio-drivers" style="rounded=1;whiteSpace=wrap;html=1;fillColor=#d0cee2;strokeColor=#56517e;fontFamily=Noto Sans CJK SC;fontSize=12;" vertex="1" parent="1">
          <mxGeometry x="-350" y="720" width="150" height="30" as="geometry" />
        </mxCell>
      </root>
    </mxGraphModel>
  </diagram>
</mxfile>
